# Blender v2.90.1 OBJ File: ''
# www.blender.org
mtllib 3d.mtl
o Cube_Cube.004
v 7.581382 1.418947 -3.840773
v 7.581382 -1.418947 -3.840773
v 7.581382 1.418947 3.840773
v 7.581382 -1.418947 3.840773
v -7.581382 1.418947 -3.840773
v -7.581382 -1.418947 -3.840773
v -7.581382 1.418947 3.840773
v -7.581382 -1.418947 3.840773
vt 0.625000 0.500000
vt 0.875000 0.500000
vt 0.875000 0.750000
vt 0.625000 0.750000
vt 0.375000 0.750000
vt 0.625000 1.000000
vt 0.375000 1.000000
vt 0.375000 0.000000
vt 0.625000 0.000000
vt 0.625000 0.250000
vt 0.375000 0.250000
vt 0.125000 0.500000
vt 0.375000 0.500000
vt 0.125000 0.750000
vn 0.0000 1.0000 0.0000
vn 0.0000 0.0000 1.0000
vn -1.0000 0.0000 0.0000
vn 0.0000 -1.0000 0.0000
vn 1.0000 0.0000 0.0000
vn 0.0000 0.0000 -1.0000
usemtl Material.001
s off
f 1/1/1 5/2/1 7/3/1 3/4/1
f 4/5/2 3/4/2 7/6/2 8/7/2
f 8/8/3 7/9/3 5/10/3 6/11/3
f 6/12/4 2/13/4 4/5/4 8/14/4
f 2/13/5 1/1/5 3/4/5 4/5/5
f 6/11/6 5/10/6 1/1/6 2/13/6
o Cube.001
v 7.564308 -1.476319 3.813847
v 8.598592 3.499095 3.813847
v 7.564308 -1.476319 -3.813847
v 8.598592 3.499095 -3.813847
v 9.478256 -1.476319 3.813847
v 9.478256 3.499095 3.813847
v 9.478256 -1.476319 -3.813847
v 9.478256 3.499095 -3.813847
v 8.299688 2.974906 3.813847
v 8.299688 2.974906 -3.813847
v 9.478256 2.974906 -3.813847
v 9.478256 2.974906 3.813847
v 8.029325 2.458297 -3.813847
v 9.478256 2.458297 -3.813847
v 9.478256 2.458297 3.813847
v 8.029325 2.458297 3.813847
v 7.778912 1.910698 -3.813847
v 9.478256 2.063118 -3.813847
v 9.478256 2.063118 3.813847
v 7.778912 1.910698 3.813847
v 7.564308 1.414373 -3.813847
v 9.478256 1.414373 -3.813847
v 9.478256 1.414373 3.813847
v 7.564308 1.414373 3.813847
vt 0.598661 0.000000
vt 0.625000 0.000000
vt 0.625000 0.250000
vt 0.598661 0.250000
vt 0.625000 0.500000
vt 0.598661 0.500000
vt 0.625000 0.750000
vt 0.598661 0.750000
vt 0.625000 1.000000
vt 0.598661 1.000000
vt 0.125000 0.500000
vt 0.375000 0.500000
vt 0.375000 0.750000
vt 0.125000 0.750000
vt 0.875000 0.500000
vt 0.875000 0.750000
vt 0.572703 0.750000
vt 0.572703 1.000000
vt 0.572703 0.500000
vt 0.572703 0.250000
vt 0.572703 0.000000
vt 0.552846 0.000000
vt 0.552846 0.250000
vt 0.552846 0.500000
vt 0.552846 0.750000
vt 0.552846 1.000000
vt 0.520249 0.750000
vt 0.520249 1.000000
vt 0.520249 0.500000
vt 0.520249 0.250000
vt 0.520249 0.000000
vt 0.375000 0.000000
vt 0.375000 0.250000
vt 0.375000 1.000000
vn -0.8687 0.4953 0.0000
vn 0.0000 0.0000 -1.0000
vn 1.0000 0.0000 0.0000
vn 0.0000 0.0000 1.0000
vn 0.0000 -1.0000 0.0000
vn 0.0000 1.0000 0.0000
vn -0.8860 0.4637 0.0000
vn -0.9094 0.4159 -0.0000
vn -0.9179 0.3969 0.0000
vn -1.0000 0.0000 0.0000
usemtl None
s off
f 17/15/7 10/16/7 12/17/7 18/18/7
f 18/18/8 12/17/8 16/19/8 19/20/8
f 19/20/9 16/19/9 14/21/9 20/22/9
f 20/22/10 14/21/10 10/23/10 17/24/10
f 11/25/11 15/26/11 13/27/11 9/28/11
f 16/19/12 12/29/12 10/30/12 14/21/12
f 23/31/10 20/22/10 17/24/10 24/32/10
f 22/33/9 19/20/9 20/22/9 23/31/9
f 21/34/8 18/18/8 19/20/8 22/33/8
f 24/35/13 17/15/13 18/18/13 21/34/13
f 28/36/14 24/35/14 21/34/14 25/37/14
f 25/37/8 21/34/8 22/33/8 26/38/8
f 26/38/9 22/33/9 23/31/9 27/39/9
f 27/39/10 23/31/10 24/32/10 28/40/10
f 31/41/10 27/39/10 28/40/10 32/42/10
f 30/43/9 26/38/9 27/39/9 31/41/9
f 29/44/8 25/37/8 26/38/8 30/43/8
f 32/45/15 28/36/15 25/37/15 29/44/15
f 9/46/16 32/45/16 29/44/16 11/47/16
f 11/47/8 29/44/8 30/43/8 15/26/8
f 15/26/9 30/43/9 31/41/9 13/27/9
f 13/27/10 31/41/10 32/42/10 9/48/10
