# Blender v2.90.1 OBJ File: ''
# www.blender.org
mtllib 4d.mtl
o Cube.005_Cube.007
v -14.724391 2.855419 18.040241
v -14.724391 4.855418 18.040241
v -14.724391 2.855419 9.748747
v -14.724391 4.855418 9.748747
v -6.339166 2.855419 18.040241
v -6.339166 4.855418 18.040241
v -6.339166 2.855419 9.748747
v -6.339166 4.855418 9.748747
v -14.724391 2.855419 10.931225
v -14.724391 4.855418 10.931225
v -6.339166 2.855419 10.931225
v -6.339166 4.855418 10.931225
v -13.899884 2.855419 9.748747
v -13.899884 4.855418 9.748747
v -13.899884 2.855419 18.040241
v -13.899884 4.855418 18.040241
v -13.899884 4.855418 10.931225
v -13.899884 2.855419 10.931225
v -14.724391 2.855419 17.165083
v -6.339166 4.855418 17.165083
v -14.724391 4.855418 17.165083
v -6.339166 2.855419 17.165083
v -13.899884 4.855418 17.165083
v -13.899884 2.855419 17.165083
v -7.255888 4.855418 9.748747
v -7.255888 2.855419 18.040241
v -7.255888 4.855418 10.931225
v -7.255888 2.855419 9.748747
v -7.255888 4.855418 18.040241
v -7.255888 2.855419 10.931225
v -7.255888 4.855418 17.165083
v -7.255888 2.855419 17.165083
v -14.724391 -1.684528 17.165083
v -14.724391 -1.684528 18.040241
v -13.899884 -1.684528 9.748747
v -14.724391 -1.684528 9.748747
v -6.339166 -1.684528 10.931225
v -6.339166 -1.684528 9.748747
v -7.255888 -1.684528 18.040241
v -6.339166 -1.684528 18.040241
v -14.724391 -1.684528 10.931225
v -13.899884 -1.684528 10.931225
v -13.899884 -1.684528 18.040241
v -13.899884 -1.684528 17.165083
v -6.339166 -1.684528 17.165083
v -7.255888 -1.684528 9.748747
v -7.255888 -1.684528 10.931225
v -7.255888 -1.684528 17.165083
vt 0.375000 0.214347
vt 0.625000 0.214347
vt 0.625000 0.250000
vt 0.375000 0.250000
vt 0.375000 0.472669
vt 0.625000 0.472669
vt 0.625000 0.500000
vt 0.375000 0.500000
vt 0.375000 0.723613
vt 0.625000 0.723613
vt 0.625000 0.750000
vt 0.375000 0.750000
vt 0.375000 0.975418
vt 0.625000 0.975418
vt 0.625000 1.000000
vt 0.375000 1.000000
vt 0.375000 0.750000
vt 0.375000 0.723613
vt 0.850418 0.723613
vt 0.875000 0.723613
vt 0.875000 0.750000
vt 0.850418 0.750000
vt 0.850418 0.500000
vt 0.875000 0.500000
vt 0.875000 0.535653
vt 0.850418 0.535653
vt 0.347668 0.535653
vt 0.347668 0.500000
vt 0.347668 0.500000
vt 0.347668 0.535653
vt 0.625000 0.535653
vt 0.375000 0.535653
vt 0.375000 0.026387
vt 0.625000 0.026387
vt 0.375000 0.535653
vt 0.652331 0.500000
vt 0.652331 0.535653
vt 0.652331 0.723613
vt 0.652331 0.750000
vt 0.375000 0.250000
vt 0.375000 0.214347
vt 0.375000 0.777331
vt 0.625000 0.777331
vt 0.625000 0.274582
vt 0.375000 0.274582
vt 0.125000 0.535653
vt 0.149582 0.535653
vt 0.149582 0.723613
vt 0.125000 0.723613
vt 0.375000 0.000000
vt 0.625000 0.000000
vt 0.347668 0.723613
vt 0.149582 0.500000
vt 0.347668 0.750000
vt 0.149582 0.750000
vt 0.347668 0.723613
vt 0.347668 0.750000
vt 0.375000 0.500000
vt 0.125000 0.500000
vt 0.149582 0.500000
vt 0.149582 0.535653
vt 0.125000 0.535653
vt 0.125000 0.723613
vt 0.149582 0.723613
vt 0.149582 0.750000
vt 0.125000 0.750000
vt 0.375000 1.000000
vt 0.375000 0.975418
vt 0.375000 0.026387
vt 0.375000 0.000000
vt 0.375000 0.777331
vt 0.375000 0.472669
vt 0.375000 0.274582
vn -1.0000 0.0000 0.0000
vn 0.0000 0.0000 -1.0000
vn 1.0000 0.0000 0.0000
vn 0.0000 0.0000 1.0000
vn 0.0000 1.0000 0.0000
vn 0.0000 -1.0000 0.0000
usemtl None
s off
f 9/1/1 10/2/1 4/3/1 3/4/1
f 28/5/2 25/6/2 8/7/2 7/8/2
f 22/9/3 20/10/3 6/11/3 5/12/3
f 15/13/4 16/14/4 2/15/4 1/16/4
f 22/9/3 5/12/3 40/17/3 45/18/3
f 23/19/5 21/20/5 2/21/5 16/22/5
f 14/23/5 4/24/5 10/25/5 17/26/5
f 30/27/1 28/28/1 46/29/1 47/30/1
f 7/8/3 8/7/3 12/31/3 11/32/3
f 19/33/1 21/34/1 10/2/1 9/1/1
f 11/32/4 30/27/4 47/30/4 37/35/4
f 25/36/5 14/23/5 17/26/5 27/37/5
f 31/38/5 23/19/5 16/22/5 29/39/5
f 9/1/1 3/4/1 36/40/1 41/41/1
f 26/42/4 29/43/4 16/14/4 15/13/4
f 3/4/2 4/3/2 14/44/2 13/45/2
f 9/46/6 18/47/6 24/48/6 19/49/6
f 27/37/5 17/26/5 23/19/5 31/38/5
f 1/50/1 2/51/1 21/34/1 19/33/1
f 17/26/5 10/25/5 21/20/5 23/19/5
f 30/27/6 11/32/6 22/9/6 32/52/6
f 11/32/3 12/31/3 20/10/3 22/9/3
f 18/47/6 30/27/6 32/52/6 24/48/6
f 12/31/5 27/37/5 31/38/5 20/10/5
f 5/12/4 6/11/4 29/43/4 26/42/4
f 20/10/5 31/38/5 29/39/5 6/11/5
f 8/7/5 25/36/5 27/37/5 12/31/5
f 13/53/6 28/28/6 30/27/6 18/47/6
f 24/48/6 32/52/6 26/54/6 15/55/6
f 13/45/2 14/44/2 25/6/2 28/5/2
f 48/56/6 45/18/6 40/17/6 39/57/6
f 46/29/6 38/58/6 37/35/6 47/30/6
f 36/59/6 35/60/6 42/61/6 41/62/6
f 33/63/6 44/64/6 43/65/6 34/66/6
f 26/54/1 32/52/1 48/56/1 39/57/1
f 32/52/2 22/9/2 45/18/2 48/56/2
f 24/48/3 15/55/3 43/65/3 44/64/3
f 7/8/3 11/32/3 37/35/3 38/58/3
f 15/13/4 1/16/4 34/67/4 43/68/4
f 1/50/1 19/33/1 33/69/1 34/70/1
f 19/49/2 24/48/2 44/64/2 33/63/2
f 18/47/4 9/46/4 41/62/4 42/61/4
f 5/12/4 26/42/4 39/71/4 40/17/4
f 28/5/2 7/8/2 38/58/2 46/72/2
f 13/53/3 18/47/3 42/61/3 35/60/3
f 3/4/2 13/45/2 35/73/2 36/40/2
o Cube.006_Cube.008
v -8.387090 -1.539489 15.181443
v -8.387090 -1.539489 11.009067
v -8.387090 6.396230 11.009067
v -4.214713 -1.539489 15.181443
v -4.214713 6.396230 15.181443
v -4.214713 -1.539489 11.009067
v -4.214713 6.396230 11.009067
v -5.162981 -1.539489 11.009067
v -5.162981 6.396230 11.009067
v -5.162981 -1.539489 15.181443
v -5.162981 6.396230 15.181443
v -8.387090 2.403097 15.181443
v -8.387090 2.403097 11.009067
v -4.214713 2.403097 11.009067
v -4.214713 2.403097 15.181443
v -5.162981 2.403097 15.181443
v -5.162981 2.403097 11.009067
v -7.485862 -1.539489 11.009067
v -7.485862 6.396230 15.181443
v -7.485862 6.396230 11.009067
v -7.485862 -1.539489 15.181443
v -7.485862 2.403097 11.009067
v -7.485862 2.403097 15.181443
v -8.387090 1.013083 11.009067
v -4.214713 1.013083 11.009067
v -4.214713 1.013083 15.181443
v -5.162981 1.013083 15.181443
v -5.162981 1.013083 11.009067
v -8.387090 1.013083 15.181443
v -7.485862 1.013083 15.181443
v -7.485862 1.013083 11.009067
v -8.387090 -1.539489 11.998864
v -8.387090 6.396230 11.998864
v -4.214713 -1.539489 11.998864
v -4.214713 6.396230 11.998864
v -5.162981 6.396230 11.998864
v -5.162981 -1.539489 11.998864
v -4.214713 2.403097 11.998864
v -8.387090 2.403097 11.998864
v -7.485862 -1.539489 11.998864
v -7.485862 6.396230 11.998864
v -8.387090 1.013083 11.998864
v -4.214713 1.013083 11.998864
v -8.387090 -1.539489 14.166049
v -4.214713 6.396230 14.166049
v -5.162981 6.396230 14.166049
v -5.162981 -1.539489 14.166049
v -4.214713 2.403097 14.166049
v -7.485862 -1.539489 14.166049
v -4.214713 1.013083 14.166049
v -4.214713 -1.539489 14.166049
v -8.387090 2.403097 14.166049
v -8.387090 1.013083 14.166049
v -4.214713 -1.548945 14.166049
v -4.214713 -1.548945 15.181443
v -5.162981 -1.548945 15.181443
v -5.162981 -1.548945 14.166049
v -5.162981 2.370422 11.998864
v -4.214713 2.370422 11.998864
v -4.214713 2.370422 14.166049
v -5.162981 2.370422 14.166049
v -8.387090 1.013083 11.995164
v -8.387090 -1.539489 11.995164
v -7.485862 -1.539489 11.995164
v -7.485862 1.013083 11.995164
vt 0.499204 0.443182
vt 0.625000 0.443182
vt 0.625000 0.500000
vt 0.499204 0.500000
vt 0.499204 0.689160
vt 0.625000 0.689160
vt 0.625000 0.750000
vt 0.499204 0.750000
vt 0.318182 0.500000
vt 0.318182 0.559307
vt 0.681818 0.559307
vt 0.625000 0.806818
vt 0.499204 0.806818
vt 0.455414 0.304000
vt 0.499204 0.304000
vt 0.455414 0.443182
vt 0.455414 0.750000
vt 0.455414 0.806818
vt 0.455414 1.000000
vt 0.455414 0.946000
vt 0.499204 0.946000
vt 0.499204 0.000000
vt 0.455414 0.689160
vt 0.455414 0.500000
vt 0.455414 0.190693
vt 0.499204 0.190693
vt 0.499204 0.250000
vt 0.455414 0.250000
vt 0.375000 0.250000
vt 0.455414 0.250000
vt 0.375000 0.250000
vt 0.375000 0.190693
vt 0.375000 0.443182
vt 0.375000 0.500000
vt 0.375000 0.689160
vt 0.375000 0.750000
vt 0.375000 0.946000
vt 0.375000 1.000000
vt 0.375000 0.806818
vt 0.455414 0.559307
vt 0.375000 0.559307
vt 0.125000 0.500000
vt 0.179000 0.500000
vt 0.179000 0.559307
vt 0.125000 0.559307
vt 0.455414 0.060840
vt 0.499204 0.060840
vt 0.499204 0.559307
vt 0.625000 0.559307
vt 0.455414 0.000000
vt 0.375000 0.000000
vt 0.375000 0.060840
vt 0.681818 0.689160
vt 0.625000 0.689160
vt 0.681818 0.689160
vt 0.000000 0.000000
vt 0.000000 0.000000
vt 0.000000 0.000000
vt 0.000000 0.000000
vt 0.000000 0.000000
vt 0.000000 0.000000
vt 0.000000 0.000000
vt 0.000000 0.000000
vt 0.000000 0.000000
vt 0.000000 0.000000
vt 0.625000 0.689160
vt 0.681818 0.689160
vt 0.625000 0.806818
vt 0.625000 0.750000
vt 0.000000 0.000000
vt 0.000000 0.000000
vt 0.000000 0.000000
vt 0.000000 0.000000
vt 0.000000 0.000000
vt 0.000000 0.000000
vt 0.000000 0.000000
vt 0.000000 0.000000
vt 0.000000 0.000000
vt 0.000000 0.000000
vt 0.000000 0.000000
vt 0.625000 0.559307
vt 0.681818 0.559307
vt 0.000000 0.000000
vt 0.000000 0.000000
vt 0.455414 0.304000
vt 0.375000 0.304000
vt 0.000000 0.000000
vt 0.000000 0.000000
vt 0.000000 0.000000
vt 0.000000 0.000000
vt 0.125000 0.500000
vt 0.179000 0.500000
vn 0.0000 0.0000 -1.0000
vn 1.0000 0.0000 0.0000
vn -1.0000 0.0000 0.0000
vn 0.0000 0.0000 1.0000
vn 0.0000 -1.0000 0.0000
vn 0.0000 1.0000 0.0000
usemtl None
s off
f 65/74/7 57/75/7 55/76/7 62/77/7
f 96/78/8 93/79/8 53/80/8 63/81/8
f 56/82/9 85/83/9 84/84/9 57/75/9
f 63/81/10 53/80/10 59/85/10 64/86/10
f 79/87/7 70/88/7 65/74/7 76/89/7
f 74/90/10 63/81/10 64/86/10 75/91/10
f 77/92/10 78/93/10 71/94/10 60/95/10
f 98/96/8 96/78/8 63/81/8 74/90/8
f 76/89/7 65/74/7 62/77/7 73/97/7
f 90/98/9 87/99/9 61/100/9 72/101/9
f 75/91/10 64/86/10 71/94/10 78/93/10
f 72/101/7 61/100/7 70/88/7 79/87/7
f 50/102/8 72/101/8 110/103/8 111/104/8
f 80/105/9 90/98/9 72/101/9 50/102/9
f 56/106/7 76/89/7 73/97/7 54/107/7
f 99/108/8 98/96/8 74/90/8 52/109/8
f 69/110/10 78/93/10 77/92/10 49/111/10
f 52/109/10 74/90/10 75/91/10 58/112/10
f 54/107/8 73/97/8 91/113/8 82/114/8
f 50/115/11 66/116/11 88/117/11 80/118/11
f 101/119/9 100/120/9 87/99/9 90/98/9
f 73/97/8 62/77/8 86/121/8 91/113/8
f 56/82/11 54/107/11 82/114/11 85/83/11
f 62/77/8 55/76/8 83/122/8 86/121/8
f 55/76/12 57/75/12 84/84/12 83/122/12
f 77/123/9 60/95/9 100/120/9 101/119/9
f 49/124/9 77/123/9 101/119/9 92/125/9
f 91/113/8 86/121/8 96/78/8 98/96/8
f 94/126/7 93/79/7 108/127/7 109/128/7
f 86/121/8 83/122/8 93/79/8 96/78/8
f 94/129/8 59/130/8 104/131/8 105/132/8
f 86/133/7 91/134/7 82/135/7 85/136/7 84/137/7 83/138/7
f 102/139/12 105/140/12 104/141/12 103/142/12
f 59/85/7 53/80/7 103/142/7 104/141/7
f 93/79/10 94/126/10 105/140/10 102/139/10
f 53/80/9 93/79/9 102/139/9 103/142/9
f 94/129/11 93/143/11 53/144/11 59/130/11
f 70/145/12 61/146/12 87/147/12 100/148/12 60/149/12 71/150/12 64/151/12 96/152/12 86/133/12 65/153/12
f 107/154/12 106/155/12 109/128/12 108/127/12
f 93/79/9 83/122/9 107/154/9 108/127/9
f 84/137/8 94/129/8 109/156/8 106/157/8
f 83/122/10 84/84/10 106/155/10 107/154/10
f 94/129/11 84/137/11 83/138/11 93/143/11
f 111/104/7 110/103/7 113/158/7 112/159/7
f 79/160/9 66/161/9 112/162/9 113/163/9
f 72/101/11 79/87/11 113/158/11 110/103/11
f 66/116/12 50/115/12 111/164/12 112/165/12
l 99 82
l 97 92
l 99 95
